<svg version="1.1" id="Layer_1" xmlns="http://www.w3.org/2000/svg" xmlns:xlink="http://www.w3.org/1999/xlink" x="0px" y="0px"
	 width="100%" viewBox="0 0 1024 1024" enable-background="new 0 0 1024 1024" xml:space="preserve">
<path fill="#000000" opacity="1.000000" stroke="none" 
	d="
M454.058350,672.859985 
	C441.957123,701.668335 421.875702,721.574341 392.262421,731.123962 
	C352.871277,743.826904 309.436279,729.791077 284.260559,696.607544 
	C270.706146,678.741760 263.219452,658.625610 263.867645,636.252075 
	C264.897522,600.704956 280.804504,573.216675 311.107880,554.297241 
	C325.586334,545.257812 341.676514,540.451660 358.444000,540.217102 
	C389.920746,539.776672 416.651489,551.002625 436.640900,576.214233 
	C440.256866,580.774841 443.498749,585.592102 446.623383,590.789062 
	C448.262512,589.445007 447.693787,587.867798 447.704132,586.565796 
	C447.839264,569.580750 447.576294,552.585938 448.049622,535.611328 
	C449.443268,485.631195 448.081482,435.639282 448.972931,385.662811 
	C449.212799,372.217377 449.938843,358.717255 455.340210,345.981842 
	C471.892517,306.954651 515.340881,292.101196 552.287170,312.974548 
	C572.791504,324.558807 585.080383,342.804047 593.143982,364.250427 
	C600.629028,384.158173 603.450867,404.790894 601.638062,426.025330 
	C601.107117,432.243774 606.909607,441.450806 612.755188,443.773224 
	C616.213562,445.147247 619.193298,447.287506 621.981445,449.663910 
	C628.706238,455.395538 637.222168,453.790497 641.773743,446.004608 
	C644.197998,441.857758 645.029236,437.316040 645.833984,432.718536 
	C646.027100,431.615082 645.866089,430.353790 647.380859,429.273285 
	C649.256042,434.994293 647.794373,440.566040 646.921509,445.840332 
	C637.416138,503.279602 604.756104,542.230042 551.429382,564.465088 
	C545.386963,566.984497 539.046997,568.322815 532.551514,568.919495 
	C530.649597,569.094116 528.211548,570.007935 527.179993,567.696777 
	C526.328430,565.788696 528.211304,564.371582 529.356262,562.993469 
	C541.273071,548.650085 553.744324,534.774719 564.265320,519.287170 
	C576.923828,500.653107 587.635315,481.043274 591.927795,458.810120 
	C597.394104,430.497070 596.163025,402.706268 580.483459,377.236755 
	C575.238770,368.717468 567.765869,362.463959 559.022461,357.481476 
	C540.360718,346.847137 516.842773,355.497803 511.332611,379.276093 
	C506.787354,398.890503 504.138367,418.875519 500.516449,438.672150 
	C495.787109,464.521851 490.998688,490.360901 486.176575,516.193481 
	C478.913574,555.102173 471.665985,594.014038 464.270386,632.897583 
	C461.722870,646.291382 459.400085,659.770142 454.058350,672.859985 
M323.298523,675.072632 
	C323.845367,682.817505 327.027557,684.590698 333.519653,680.781677 
	C346.149261,673.371643 358.809998,666.014160 371.405945,658.547424 
	C379.993317,653.456787 388.640350,648.442322 396.976196,642.961182 
	C402.029694,639.638245 401.686707,635.697693 396.704651,632.285034 
	C395.884094,631.722839 394.968536,631.301331 394.111694,630.790039 
	C380.965881,622.944214 367.813934,615.108643 354.681854,607.239990 
	C347.406921,602.880798 340.317810,598.182495 332.857178,594.172424 
	C327.757507,591.431274 325.160065,593.171936 324.211273,598.866089 
	C323.552307,602.820679 323.337036,606.793762 323.339508,610.799744 
	C323.352478,631.919983 323.317627,653.040161 323.298523,675.072632 
z"/>
<path fill="#000000" opacity="1.000000" stroke="none" 
	d="
M351.998596,779.269714 
	C332.847504,778.667908 314.179138,779.571655 295.529144,778.442444 
	C273.251221,777.093628 255.715134,766.724121 242.402878,749.517517 
	C225.326981,727.446289 220.569107,702.409668 227.722946,675.408203 
	C229.674561,668.041992 232.838898,660.992554 235.538879,653.832520 
	C236.166183,652.168945 236.852692,650.408447 239.296997,649.082520 
	C240.822189,653.184021 241.037430,657.180603 241.362595,661.225708 
	C242.604431,676.674622 244.565918,691.974426 250.404709,706.540466 
	C262.032257,735.547852 283.351837,753.677063 312.605408,763.671570 
	C333.395203,770.774536 354.366821,770.544189 375.729767,768.006714 
	C393.397003,765.908203 411.149658,764.537048 428.853485,762.735474 
	C445.725311,761.018616 462.577698,759.111206 479.448303,757.381653 
	C495.168182,755.770020 510.899353,754.267700 526.628113,752.743958 
	C542.844849,751.172852 559.062195,749.606934 575.283875,748.088318 
	C591.179382,746.600342 607.090088,745.270142 622.977417,743.700928 
	C650.773254,740.955261 678.807617,740.044861 706.263000,734.619202 
	C727.246094,730.472534 743.926636,710.698059 746.854858,689.494507 
	C748.534485,677.332214 746.240906,665.974365 742.108032,654.813904 
	C725.448914,609.827759 707.197083,565.486145 687.912842,521.564453 
	C683.562195,511.655487 679.415344,501.655823 675.276245,491.655853 
	C673.471802,487.296295 673.011108,482.611572 672.837585,477.957062 
	C672.565308,470.656830 679.890137,466.414795 686.362854,469.982208 
	C689.541931,471.734344 691.671814,474.489929 693.535522,477.482880 
	C702.610352,492.055756 710.322144,507.389282 718.523865,522.447021 
	C740.509277,562.810486 762.371399,603.241089 784.316528,643.626587 
	C792.056213,657.869751 798.914429,672.387878 801.304749,688.684937 
	C804.348389,709.436035 799.064148,728.060913 787.069458,744.834229 
	C773.154663,764.292542 754.069641,776.048279 730.288025,778.160583 
	C699.418030,780.902344 668.382507,780.238831 637.403015,780.208130 
	C599.906860,780.171021 562.410583,780.107727 524.914612,779.977356 
	C467.442505,779.777588 409.970612,779.510864 351.998596,779.269714 
z"/>
<path fill="#000000" opacity="1.000000" stroke="none" 
	d="
M468.866364,299.840881 
	C455.781433,308.652313 447.150970,320.551453 440.133240,334.133667 
	C421.259644,370.661896 402.744781,407.387207 382.624939,443.256989 
	C373.753204,459.073608 364.647552,474.765533 355.319763,490.317108 
	C350.602509,498.181824 345.039917,505.465424 336.898895,510.332764 
	C329.413879,514.807922 322.724182,512.116516 320.506897,503.644073 
	C318.556549,496.191559 320.641418,489.551086 324.202454,483.084381 
	C344.917633,445.466339 365.633087,407.848267 386.264923,370.184448 
	C405.698456,334.708038 424.025726,298.626221 444.528503,263.734863 
	C451.008789,252.706818 460.224060,244.426529 470.891449,237.639664 
	C472.390717,236.685806 473.967041,235.608643 476.231506,235.914505 
	C478.159882,239.025803 478.624725,242.730865 478.747192,246.271576 
	C479.008301,253.821121 483.048187,258.162476 489.908600,259.660034 
	C499.321167,261.714691 507.415192,266.883331 516.337158,270.064728 
	C520.213013,271.446808 522.779541,274.285767 521.472046,278.995575 
	C521.427612,279.155548 521.423218,279.327301 521.372986,279.484894 
	C520.448669,282.383392 523.657349,286.009735 520.176453,288.321655 
	C517.439392,290.139557 514.329590,288.282806 511.391296,288.221039 
	C496.169067,287.900757 482.086029,291.564148 468.866364,299.840881 
z"/>
</svg>