<?xml version="1.0" standalone="no"?>
<!DOCTYPE svg PUBLIC "-//W3C//DTD SVG 20010904//EN"
 "http://www.w3.org/TR/2001/REC-SVG-20010904/DTD/svg10.dtd">
<svg version="1.0" xmlns="http://www.w3.org/2000/svg"
 width="1536.000000pt" height="1536.000000pt" viewBox="0 0 1536.000000 1536.000000"
 preserveAspectRatio="xMidYMid meet">

<g transform="translate(0.000000,1536.000000) scale(0.100000,-0.100000)"
fill="#000000" stroke="none">
<path d="M7270 12833 c-8 -3 -18 -11 -23 -17 -4 -6 -7 -1948 -6 -4316 0 -3026
-3 -4325 -10 -4371 -63 -387 -313 -748 -656 -946 -188 -109 -420 -199 -560
-217 -72 -10 -104 -25 -120 -57 -20 -38 -19 -61 5 -87 29 -31 61 -36 138 -22
149 27 267 64 427 133 527 228 870 667 944 1210 7 50 11 375 11 906 0 781 1
832 19 902 78 304 305 523 701 676 135 52 257 84 435 114 174 30 568 32 745 5
355 -54 810 -206 983 -328 l28 -20 -3 89 -3 88 -105 52 c-217 106 -485 194
-740 242 -232 43 -348 53 -567 48 -412 -9 -693 -72 -1001 -224 -223 -110 -387
-245 -465 -381 l-32 -57 -3 65 c-5 93 13 209 42 274 36 81 120 199 185 258 65
60 216 160 316 210 81 41 331 130 425 152 240 55 382 80 570 96 172 16 451 16
605 1 245 -24 519 -88 707 -167 32 -13 60 -24 63 -24 7 0 6 119 -1 145 -5 21
-74 50 -240 100 -568 171 -1332 139 -1977 -81 -311 -107 -594 -296 -678 -454
-22 -42 -22 -36 -9 115 25 278 116 428 360 589 112 74 150 94 268 142 340 138
844 258 1287 306 156 17 800 18 905 1 41 -7 76 -11 77 -9 2 1 -7 34 -20 72
l-22 69 -55 7 c-30 4 -185 11 -345 14 -281 6 -519 -3 -675 -27 -36 -5 -141
-21 -235 -35 -93 -14 -186 -29 -205 -34 -19 -5 -93 -23 -165 -40 -398 -96
-777 -243 -952 -371 -77 -56 -177 -161 -203 -212 l-21 -42 6 120 c2 66 11 143
18 170 74 269 376 487 933 671 218 71 360 109 628 165 356 75 587 100 1004
108 l44 1 -23 38 c-13 20 -34 52 -48 69 l-26 33 -116 0 c-273 0 -847 -81
-1135 -161 -43 -12 -101 -28 -129 -35 -349 -94 -715 -245 -914 -379 -81 -54
-173 -140 -222 -208 l-31 -42 5 110 c4 91 10 125 37 199 28 76 42 99 99 158
167 177 474 339 936 493 331 110 627 176 910 205 163 16 195 21 195 26 0 11
-66 75 -101 100 -34 23 -43 25 -115 19 -260 -20 -564 -87 -934 -207 -458 -148
-903 -385 -985 -524 -15 -25 -29 -43 -31 -41 -10 9 -3 731 7 805 54 407 427
678 869 633 372 -39 752 -225 1225 -601 345 -274 573 -543 729 -864 112 -228
154 -376 156 -556 0 -69 3 -246 5 -395 1 -148 4 -621 6 -1050 1 -429 6 -791
11 -804 5 -13 6 -26 4 -29 -3 -2 -40 29 -83 71 -124 120 -205 177 -345 245
-450 217 -1007 222 -1443 12 -128 -62 -245 -145 -357 -256 -234 -232 -341
-515 -308 -817 42 -379 326 -724 740 -899 121 -51 305 -99 438 -113 97 -11
293 -12 382 -3 179 18 362 73 545 163 214 105 375 240 494 415 183 270 223
524 136 865 l-23 90 -6 1285 c-7 1295 -11 1621 -21 1960 -8 235 -12 284 -37
399 -87 410 -354 804 -757 1116 -319 247 -422 328 -579 448 -96 72 -237 181
-315 241 -78 59 -198 151 -267 203 -69 52 -167 127 -219 166 -52 40 -103 79
-115 87 -136 94 -375 282 -419 330 -132 142 -248 318 -312 474 -78 190 -110
340 -121 566 -7 130 -8 136 -35 162 -23 23 -36 28 -76 27 -26 0 -55 -3 -63 -6z
m1761 -7305 c193 -204 309 -318 324 -318 7 0 36 26 66 58 280 298 393 412 411
412 18 0 195 -48 211 -57 12 -7 -61 -89 -358 -403 -50 -52 -121 -127 -158
-167 l-68 -72 1 -273 c0 -150 1 -288 0 -306 l0 -33 -112 3 -113 3 -2 195 c0
107 -2 247 -2 310 l-1 115 -158 165 c-86 91 -180 188 -208 215 -27 28 -83 87
-123 133 -67 76 -72 86 -63 107 15 32 65 57 132 65 30 4 58 8 61 9 4 0 76 -72
160 -161z"/>
<path d="M6725 12216 l-24 -24 4 -3626 c2 -1994 2 -3626 0 -3626 -3 0 -27 30
-54 67 -123 169 -391 351 -653 444 -133 47 -305 86 -403 91 l-70 3 3 -1160 c2
-638 4 -1161 5 -1162 5 -4 232 38 305 57 186 47 392 137 522 227 266 185 423
407 498 703 15 60 16 386 19 4030 l3 3965 -21 18 c-33 26 -104 23 -134 -7z
m-533 -7103 c2 -38 5 -275 6 -528 l2 -460 221 -3 222 -2 -6 -78 c-3 -42 -8
-86 -10 -97 -4 -19 -13 -20 -310 -23 -351 -3 -344 -4 -333 76 3 25 6 301 6
613 l0 569 99 0 99 0 4 -67z"/>
<path d="M10625 9158 c8 -55 19 -78 40 -78 6 0 70 -18 141 -39 247 -75 482
-194 689 -348 l70 -52 42 41 41 40 -31 28 c-209 180 -550 349 -890 439 -112
30 -110 31 -102 -31z"/>
<path d="M10692 8550 l3 -42 110 -28 c61 -16 130 -37 155 -47 52 -21 187 -94
245 -133 132 -89 191 -32 67 65 -114 90 -387 206 -523 221 l-60 7 3 -43z"/>
<path d="M5835 8324 c-217 -33 -415 -205 -530 -459 -31 -68 -67 -194 -81 -284
-3 -24 -7 -456 -9 -960 -2 -504 -6 -1390 -10 -1970 l-8 -1054 -256 7 c-141 4
-259 11 -263 14 -3 4 0 25 8 47 8 22 65 198 128 390 63 193 133 402 155 465
22 63 65 194 95 291 l56 176 0 272 0 272 -37 -7 c-228 -39 -481 -142 -685
-277 -104 -70 -238 -179 -238 -195 0 -4 70 -8 155 -10 235 -4 308 -25 385
-109 69 -74 85 -121 85 -243 0 -93 -3 -112 -26 -161 -71 -151 -183 -213 -396
-218 l-43 -1 0 -222 0 -221 -96 6 c-52 4 -99 9 -105 12 -5 4 -9 217 -9 540 0
319 -4 536 -9 540 -13 8 -83 -92 -125 -178 -62 -128 -88 -235 -93 -388 -4
-107 -2 -154 12 -215 108 -493 621 -885 1253 -959 l52 -6 0 187 c0 103 2 185
5 183 2 -3 5 -87 6 -187 l1 -182 99 0 98 0 -1 848 c-1 466 -5 1097 -9 1402
-12 804 -15 1880 -6 1880 4 0 7 -9 7 -20 0 -37 79 -178 138 -245 37 -44 112
-96 186 -131 67 -32 90 -37 169 -42 113 -6 186 9 275 53 157 80 272 229 329
430 20 72 28 286 14 370 -34 193 -126 355 -259 454 -100 75 -176 103 -292 106
-52 2 -108 1 -125 -1z m175 -160 c86 -20 159 -70 217 -147 97 -132 129 -245
121 -438 -6 -150 -38 -247 -112 -346 -86 -113 -183 -163 -319 -163 -96 0 -174
37 -247 116 -110 121 -140 204 -147 402 -7 172 4 238 57 348 93 194 241 273
430 228z"/>
<path d="M11430 8176 c0 -7 29 -67 36 -75 5 -5 54 40 54 50 0 3 -10 9 -22 12
-13 3 -33 9 -45 12 -13 4 -23 4 -23 1z"/>
<path d="M10718 8091 c-10 -40 3 -50 100 -81 120 -38 106 -32 292 -124 228
-113 443 -252 542 -351 l37 -38 11 27 c23 61 17 70 -112 166 -157 116 -121 92
-293 192 -143 83 -395 185 -533 216 -34 8 -41 7 -44 -7z"/>
<path d="M11611 7101 c-42 -40 -43 -90 -2 -132 57 -56 137 -25 148 58 5 37 2
45 -25 73 -40 39 -79 40 -121 1z"/>
<path d="M10690 7085 c-1 -3 -1 -38 -1 -79 l-1 -74 94 -85 c190 -171 352 -355
479 -542 67 -97 169 -264 169 -274 0 -27 156 -119 172 -103 16 16 -65 215
-143 352 -59 105 -189 286 -268 376 -20 22 -48 53 -62 70 -119 134 -436 393
-439 359z"/>
<path d="M11650 6535 c-21 -22 -22 -27 -10 -50 16 -30 52 -42 85 -27 32 15 40
47 21 77 -22 33 -65 33 -96 0z"/>
<path d="M10690 6337 c0 -49 3 -56 51 -107 135 -146 231 -282 314 -448 51
-105 58 -113 82 -110 53 6 50 25 -26 177 -75 151 -103 196 -187 302 -65 82
-213 239 -225 239 -5 0 -9 -24 -9 -53z"/>
<path d="M11811 6201 c-25 -7 -25 -7 -22 -116 1 -60 5 -113 7 -117 7 -11 61
-10 68 0 10 16 -7 231 -18 235 -6 2 -22 1 -35 -2z"/>
<path d="M11128 5543 c7 -3 16 -2 19 1 4 3 -2 6 -13 5 -11 0 -14 -3 -6 -6z"/>
<path d="M11163 5108 c-5 -7 -16 -49 -23 -93 -12 -82 -46 -216 -60 -244 -5 -9
-16 -38 -25 -66 -21 -60 -93 -198 -146 -278 -42 -63 -46 -76 -27 -95 20 -20
54 -13 74 14 10 15 28 38 39 53 39 49 104 166 140 250 69 162 122 408 97 448
-12 19 -57 26 -69 11z"/>
<path d="M4338 4833 c-27 -7 -31 -36 -23 -184 l7 -139 47 0 c63 0 132 25 163
58 73 78 56 212 -32 257 -27 14 -122 19 -162 8z"/>
<path d="M4998 3998 c-9 -7 -25 -40 -36 -73 -12 -33 -30 -83 -41 -111 l-20
-51 52 -7 c65 -7 125 -7 155 0 19 6 22 13 22 63 0 70 -24 162 -47 178 -22 17
-65 17 -85 1z"/>
<path d="M10265 3738 c-124 -124 -263 -222 -434 -303 l-83 -40 5 -43 c2 -24 7
-45 10 -48 6 -6 226 107 325 168 108 66 240 177 321 270 l23 26 -30 16 c-51
26 -72 19 -137 -46z"/>
</g>
</svg>
