<?xml version="1.0" standalone="no"?>
<!DOCTYPE svg PUBLIC "-//W3C//DTD SVG 20010904//EN"
 "http://www.w3.org/TR/2001/REC-SVG-20010904/DTD/svg10.dtd">
<svg version="1.0" xmlns="http://www.w3.org/2000/svg"
 width="1536.000000pt" height="1536.000000pt" viewBox="0 0 1536.000000 1536.000000"
 preserveAspectRatio="xMidYMid meet">

<g transform="translate(0.000000,1536.000000) scale(0.100000,-0.100000)"
fill="#000000" stroke="none">
<path d="M7350 12048 c-34 -19 -36 -39 -49 -518 -6 -228 -13 -446 -16 -485 -2
-38 -7 -146 -10 -240 -3 -93 -8 -197 -10 -230 -2 -33 -7 -168 -10 -300 -7
-303 -22 -748 -30 -910 -2 -33 -6 -184 -9 -335 -4 -151 -9 -313 -11 -360 -3
-47 -10 -197 -15 -335 -12 -294 -28 -414 -71 -526 -37 -97 -59 -137 -108 -199
-111 -140 -234 -211 -441 -256 -64 -13 -119 -15 -365 -9 -351 8 -488 -7 -750
-81 -357 -101 -634 -259 -898 -514 -369 -355 -570 -821 -543 -1263 14 -231 89
-443 228 -645 200 -288 517 -475 903 -533 120 -18 390 -15 516 5 446 70 835
263 1134 561 261 260 423 558 494 907 36 179 41 240 66 853 3 66 7 224 10 350
3 127 8 275 11 330 2 55 13 384 24 730 11 347 22 666 25 710 2 44 7 190 11
325 3 135 9 313 14 395 4 83 9 219 9 304 1 85 3 157 5 160 2 3 6 107 10 231
14 543 19 640 31 657 27 37 177 8 319 -63 366 -184 661 -557 792 -1001 56
-190 72 -303 78 -538 3 -128 16 -163 72 -190 34 -16 39 -16 71 -1 24 11 40 30
54 62 20 43 20 54 10 232 -11 202 -45 397 -96 547 -33 98 -111 277 -142 327
-13 21 -23 40 -23 43 0 12 -114 176 -177 255 -122 153 -276 294 -433 396 -284
184 -393 302 -452 487 -19 62 -49 429 -36 442 13 13 290 -91 443 -165 454
-221 809 -530 1098 -958 195 -287 360 -693 417 -1022 36 -210 40 -255 40 -475
0 -299 -15 -426 -85 -705 -68 -266 -178 -538 -293 -719 -44 -69 -41 -121 9
-163 82 -69 145 -22 246 180 73 145 79 159 142 317 148 371 220 840 193 1263
-52 796 -392 1479 -1022 2051 -38 34 -247 192 -315 237 -331 222 -950 443
-1065 382z m-2255 -5577 c22 -10 59 -38 82 -63 80 -88 80 -213 1 -303 -89
-101 -204 -120 -306 -51 -96 64 -135 173 -97 273 21 55 87 130 130 149 44 19
143 17 190 -5z m1423 4 c43 -19 107 -77 130 -120 22 -42 27 -144 9 -187 -61
-146 -241 -198 -367 -107 -76 55 -111 182 -79 280 15 45 74 107 124 130 49 23
133 24 183 4z m-1540 -853 c48 -78 138 -177 209 -231 80 -60 179 -104 311
-137 169 -43 383 -23 555 52 138 61 314 203 373 303 28 48 71 41 142 -23 35
-33 38 -45 20 -78 -60 -107 -201 -245 -322 -316 -118 -70 -161 -88 -301 -130
-82 -24 -105 -26 -270 -27 -167 0 -187 2 -276 27 -115 33 -183 62 -275 119
-148 89 -260 202 -334 333 -27 48 -31 60 -19 67 93 59 144 89 150 89 4 0 20
-21 37 -48z"/>
<path d="M13870 9509 c0 -5 5 -7 10 -4 6 3 10 8 10 11 0 2 -4 4 -10 4 -5 0
-10 -5 -10 -11z"/>
<path d="M10465 8947 c-113 -36 -162 -169 -97 -265 43 -64 77 -85 142 -90 48
-4 63 0 97 21 75 47 106 121 89 210 -16 88 -139 154 -231 124z"/>
<path d="M10345 7964 c-45 -23 -66 -45 -86 -89 -41 -88 -11 -188 70 -233 95
-54 191 -26 254 72 36 55 15 169 -39 217 -56 49 -142 63 -199 33z"/>
<path d="M9940 7164 c-76 -33 -110 -86 -110 -171 0 -100 53 -165 147 -179 84
-12 161 27 194 100 24 52 24 100 0 151 -44 95 -143 137 -231 99z"/>
<path d="M9558 6763 c-14 -2 -47 -22 -72 -44 -166 -147 1 -395 201 -298 127
61 129 259 3 324 -30 15 -94 24 -132 18z"/>
<path d="M9008 6456 c-81 -29 -112 -63 -127 -140 -16 -86 23 -161 104 -197 49
-23 94 -24 142 -4 124 52 150 195 55 297 -40 43 -119 63 -174 44z"/>
<path d="M8665 5943 c-53 -9 -65 -15 -94 -45 -115 -117 -50 -308 109 -322 120
-10 221 109 190 224 -11 40 -57 103 -90 120 -25 13 -92 27 -115 23z"/>
<path d="M10960 2290 c0 -5 5 -10 11 -10 5 0 7 5 4 10 -3 6 -8 10 -11 10 -2 0
-4 -4 -4 -10z"/>
<path d="M6465 2200 c3 -5 8 -10 11 -10 2 0 4 5 4 10 0 6 -5 10 -11 10 -5 0
-7 -4 -4 -10z"/>
</g>
</svg>
